<?xml version="1.0" encoding="utf-8"?>
<svg width="59px" height="59px" viewbox="0 0 59 59" version="1.1" xmlns:xlink="http://www.w3.org/1999/xlink" xmlns="http://www.w3.org/2000/svg">
  <defs>
    <filter id="filter_1">
      <feColorMatrix in="SourceGraphic" type="matrix" values="0 0 0 0 0 0 0 0 0 0.003921569 0 0 0 0 0.16078432 0 0 0 1 0" />
    </filter>
    <filter filterUnits="userSpaceOnUse" color-interpolation-filters="sRGB" id="filter_2">
      <feFlood flood-opacity="0" result="BackgroundImageFix" />
      <feColorMatrix in="SourceAlpha" type="matrix" values="0 0 0 0 0 0 0 0 0 0 0 0 0 0 0 0 0 0 127 0" />
      <feOffset dx="0" dy="2" />
      <feGaussianBlur stdDeviation="1" />
      <feColorMatrix type="matrix" values="0 0 0 0 0.9843137 0 0 0 0 0.9843137 0 0 0 0 0.9843137 0 0 0 0.49803922 0" />
      <feBlend mode="normal" in2="BackgroundImageFix" result="effect0_dropShadow" />
      <feBlend mode="normal" in="SourceGraphic" in2="effect0_dropShadow" result="shape" />
    </filter>
    <path d="M0 0L53 0L53 53L0 53L0 0Z" id="path_1" />
    <clipPath id="mask_1">
      <use xlink:href="#path_1" />
    </clipPath>
  </defs>
  <g filter="url(#filter_2)">
    <g id="Settings-icon" transform="translate(3 1)" filter="url(#filter_1)">
      <path d="M0 0L53 0L53 53L0 53L0 0Z" id="Background" fill="none" fill-rule="evenodd" stroke="none" />
      <g clip-path="url(#mask_1)">
        <path d="M24.9321 0C19.8771 0 19.9633 0.483073 19.9633 0.483073C19.3595 3.39876 18.7298 5.37419 18.3071 6.55599C15.7364 7.40137 13.3642 8.72119 11.337 10.4206C10.1121 10.179 8.13665 9.73047 5.40211 8.76432C5.40211 8.76432 5.03118 8.44515 2.43467 12.8359C-0.170475 17.2267 0.226334 17.4596 0.226334 17.4596C2.24489 19.3574 3.56471 20.8153 4.36696 21.8073C4.02191 23.3169 3.81488 24.8869 3.81488 26.5C3.81488 27.9665 3.94427 29.3984 4.22894 30.7786C3.40944 31.7534 2.06374 33.2199 0.0193023 35.0573C0.0193023 35.0573 -0.351629 35.2384 2.15863 39.681C4.66888 44.1235 4.98805 43.8216 4.98805 43.8216C7.74847 42.9072 9.7584 42.519 10.992 42.3034C13.0105 44.0804 15.3655 45.4089 17.962 46.306C18.3933 47.4705 19.0662 49.4977 19.6873 52.5169C19.6873 52.5169 19.6096 53 24.656 53C29.7024 53 29.6938 52.5169 29.6938 52.5169C30.2976 49.6099 30.8497 47.6258 31.281 46.444C33.8517 45.5986 36.2239 44.2788 38.2511 42.5794C39.476 42.821 41.4514 43.2695 44.186 44.2357C44.186 44.2357 44.5483 44.5549 47.1534 40.1641C49.7499 35.7733 49.3618 35.5404 49.3618 35.5404C47.3432 33.6426 46.0234 32.1847 45.2211 31.1927C45.5662 29.6745 45.7732 28.1131 45.7732 26.5C45.7732 25.0335 45.6438 23.6016 45.3591 22.2214C46.1786 21.2466 47.5243 19.7801 49.5688 17.9427C49.5688 17.9427 49.9397 17.7616 47.4295 13.319C44.9192 8.87646 44.6 9.17839 44.6 9.17839C41.8396 10.0928 39.8297 10.481 38.5961 10.6966C36.5776 8.92822 34.2226 7.59115 31.6261 6.69401C31.2034 5.52946 30.5219 3.50228 29.9008 0.483073C29.9008 0.483073 29.9784 0 24.9321 0L24.9321 0ZM24.7941 8.83337C34.5505 8.83337 42.4608 16.7437 42.4608 26.5C42.4608 36.2564 34.5505 44.1667 24.7941 44.1667C15.0378 44.1667 7.12744 36.2564 7.12744 26.5C7.12744 16.7437 15.0378 8.83337 24.7941 8.83337L24.7941 8.83337ZM24.7941 11.0416C16.2541 11.0416 9.33582 17.9599 9.33582 26.5C9.33582 35.04 16.2541 41.9583 24.7941 41.9583C33.3342 41.9583 40.2525 35.04 40.2525 26.5C40.2525 17.9599 33.3342 11.0416 24.7941 11.0416L24.7941 11.0416ZM24.7941 17.6666C29.6766 17.6666 33.6275 21.6175 33.6275 26.5C33.6275 31.3824 29.6766 35.3333 24.7941 35.3333C19.9117 35.3333 15.9608 31.3824 15.9608 26.5C15.9608 21.6175 19.9117 17.6666 24.7941 17.6666L24.7941 17.6666Z" transform="translate(1.7058105 0)" id="Shape" fill="#FFFFFF" fill-rule="evenodd" stroke="none" />
      </g>
    </g>
  </g>
</svg>